<?xml version="1.0" encoding="UTF-8"?>
<svg width="9px" height="5px" viewBox="0 0 9 5" version="1.1" xmlns="http://www.w3.org/2000/svg" xmlns:xlink="http://www.w3.org/1999/xlink">
    <!-- Generator: Sketch 52.5 (67469) - http://www.bohemiancoding.com/sketch -->
    <title>Shape Copy 9</title>
    <desc>Created with Sketch.</desc>
    <g id="Page-1" stroke="none" stroke-width="1" fill="none" fill-rule="evenodd">
        <g id="01-Page-Builder" transform="translate(-1413.000000, -370.000000)" fill="#323B52" fill-rule="nonzero">
            <g id="Table" transform="translate(269.000000, 113.000000)">
                <g id="Actions-draft" transform="translate(1041.000000, 239.000000)">
                    <path d="M106.417454,20.4885495 L109.584509,17.3213559 C109.671715,17.2343572 109.719688,17.1180377 109.719688,16.9940095 C109.719688,16.8699124 109.671715,16.7536618 109.584509,16.6665254 L109.306995,16.3891482 C109.219927,16.3018742 109.103539,16.2538321 108.979511,16.2538321 C108.855482,16.2538321 108.739232,16.3018742 108.652095,16.3891482 L104.88121,20.1599642 C104.79373,20.2473759 104.745826,20.3641772 104.74617,20.488343 C104.745826,20.6130596 104.793661,20.7297232 104.88121,20.8172037 L108.648585,24.5843718 C108.735721,24.6716458 108.851972,24.7196879 108.976069,24.7196879 C109.100097,24.7196879 109.216348,24.6716458 109.303553,24.5843718 L109.580999,24.3069946 C109.761535,24.1264585 109.761535,23.8325625 109.580999,23.6520953 L106.417454,20.4885495 Z" id="Shape-Copy-9" transform="translate(107.232928, 20.486760) scale(1, -1) rotate(90.000000) translate(-107.232928, -20.486760) "></path>
                </g>
            </g>
        </g>
    </g>
</svg>