<?xml version="1.0" encoding="UTF-8"?>
<svg width="18px" height="17px" viewBox="0 0 18 17" version="1.1" xmlns="http://www.w3.org/2000/svg" xmlns:xlink="http://www.w3.org/1999/xlink">
    <!-- Generator: Sketch 52.5 (67469) - http://www.bohemiancoding.com/sketch -->
    <title>certifications_ico</title>
    <desc>Created with Sketch.</desc>
    <g id="Page-1" stroke="none" stroke-width="1" fill="none" fill-rule="evenodd">
        <g id="01-Page-Builder" transform="translate(-35.000000, -400.000000)" fill="#FFFFFF">
            <g id="Left-nav" transform="translate(-8.000000, -8.000000)">
                <g id="Nav" transform="translate(42.000000, 131.000000)">
                    <g id="certifications_ico" transform="translate(1.000000, 277.000000)">
                        <path d="M16.7999464,0 L3.00005357,0 C2.33726786,0 1.8,0.538392857 1.8,1.20230357 L1.8,10.821375 L0.300053571,10.821375 C0.134357143,10.821375 0,10.9560536 0,11.1219107 C0,11.7861429 0.537267857,12.324375 1.20005357,12.324375 L9.9,12.324375 L9.9,15.9316071 C9.80460494,16.0275795 9.78539099,16.1755869 9.85311925,16.2927355 C9.92084752,16.409884 10.0587005,16.4670848 10.1894714,16.4323016 C10.3202423,16.3975183 10.4114597,16.279388 10.4120357,16.1440714 L11.9998929,14.553 L13.58775,16.1440714 C13.6734901,16.2302366 13.8027804,16.2560861 13.9150596,16.2095115 C14.0273388,16.162937 14.1003708,16.0531622 14.0999464,15.9316071 L14.0999464,12.324375 L14.9999464,12.324375 C15.6627321,12.324375 16.2,11.7859821 16.2,11.1220714 L16.2,1.503 L17.6999464,1.503 C17.8656429,1.503 18,1.36832143 18,1.20246429 C18,0.538392857 17.4627321,0 16.7999464,0 Z M15.6000536,1.20230357 L15.6000536,10.821375 L14.4,10.821375 L14.4,11.4226071 L15.519375,11.4226071 C15.4123973,11.6084286 15.2143615,11.7230099 14.9999464,11.7231429 L14.0999464,11.7231429 L14.0999464,11.4226071 L13.5,11.4226071 L13.5,15.2058214 L12.2120357,13.9154464 C12.1558299,13.8590736 12.0794981,13.8273897 11.9998929,13.8273897 C11.9202876,13.8273897 11.8439559,13.8590736 11.78775,13.9154464 L10.4999464,15.2059821 L10.4999464,11.4227679 L9.9,11.4227679 L9.9,11.7233036 L1.20005357,11.7233036 C0.985638482,11.7231707 0.787602712,11.6085893 0.680625,11.4227679 L9.59994643,11.4227679 L9.59994643,10.821375 L2.39994643,10.821375 L2.39994643,1.20230357 C2.3998185,1.04301737 2.46297204,0.890204312 2.57551397,0.777481542 C2.68805591,0.664758772 2.84076737,0.601359964 3.00005357,0.601232143 L15.766875,0.601232143 C15.6589001,0.783229621 15.6013214,0.990690585 15.6000536,1.20230357 Z M16.2806786,0.901767857 C16.3877109,0.716100639 16.585718,0.60169439 16.8000268,0.60169439 C17.0143355,0.60169439 17.2123426,0.716100639 17.319375,0.901767857 L16.2806786,0.901767857 Z" id="Shape"></path>
                        <path d="M14.9070536,9.27835714 L14.5301786,8.59564286 L14.9085,7.91357143 C14.9489199,7.84113425 14.957459,7.75516932 14.9320791,7.67619609 C14.9066992,7.59722285 14.8496776,7.5323274 14.774625,7.497 L14.0724643,7.171875 L13.9818214,6.395625 C13.9726884,6.31383317 13.9297928,6.23957853 13.8635013,6.19080606 C13.7972098,6.14203359 13.7135537,6.12318072 13.63275,6.13880357 L12.8743393,6.29083929 L12.3499286,5.71644643 C12.293881,5.65852742 12.2169184,5.62554762 12.1363235,5.62491302 C12.0557286,5.62427841 11.9782562,5.65604218 11.9213036,5.71307143 L11.9180893,5.71644643 L11.3935179,6.29083929 L10.6351071,6.13880357 C10.5542786,6.12297717 10.4705168,6.14174962 10.4041744,6.19055955 C10.337832,6.23936948 10.2949818,6.31374893 10.2860357,6.395625 L10.1953929,7.171875 L9.49307143,7.49764286 C9.41802291,7.53292992 9.36100611,7.59780797 9.33565132,7.6767674 C9.31029654,7.75572683 9.31888267,7.84167074 9.35935714,7.91405357 L9.73767857,8.59548214 L9.35935714,9.27771429 C9.31899153,9.35013709 9.31048249,9.4360611 9.33585934,9.51499437 C9.36123619,9.59392763 9.41822412,9.65879453 9.49323214,9.694125 L10.1953929,10.0198929 L10.2860357,10.7969464 C10.29521,10.8787091 10.3381228,10.9529221 10.4044092,11.0016603 C10.4706956,11.0503985 10.5543283,11.0692303 10.6351071,11.0536071 L11.3936786,10.9015714 L11.9180893,11.4759643 C11.9734013,11.5367843 12.0517989,11.5714562 12.1340089,11.5714562 C12.216219,11.5714562 12.2946166,11.5367843 12.3499286,11.4759643 L12.8743393,10.9015714 L13.63275,11.0536071 C13.7131071,11.0701607 13.7966786,11.0516786 13.8627321,11.0025 C13.928625,10.9534821 13.9710536,10.8789107 13.980375,10.7967857 L14.0710179,10.0205357 L14.7733393,9.69476786 C14.8483878,9.65948079 14.9054046,9.59460274 14.9307594,9.51564331 C14.9561142,9.43668388 14.947528,9.35073997 14.9070536,9.27835714 Z M13.9366607,8.74076786 L14.2392857,9.286875 L13.6767857,9.547875 C13.5835714,9.59110714 13.5192857,9.68030357 13.5073929,9.78348214 L13.4350714,10.4059286 L12.8269286,10.2842679 C12.7265431,10.263348 12.6226057,10.2973816 12.5540357,10.373625 L12.1339286,10.8340714 L11.7138214,10.3741071 C11.6447766,10.2985897 11.5412889,10.2646424 11.4409286,10.2845893 L10.8327857,10.40625 L10.7604643,9.78364286 C10.7487601,9.68101432 10.6846289,9.59181472 10.5910714,9.54803571 L10.0285714,9.28719643 L10.3313571,8.74108929 C10.3825374,8.65087858 10.3825374,8.54040714 10.3313571,8.45019643 L10.3313571,8.45132143 L10.0285714,7.90521429 L10.5910714,7.644375 C10.6842857,7.60098214 10.7485714,7.51178571 10.7604643,7.40876786 L10.8327857,6.78616071 L11.4409286,6.90782143 C11.5412698,6.92851008 11.6450695,6.89458262 11.7138214,6.818625 L12.1339286,6.35721429 L12.5540357,6.81701786 C12.6225684,6.89331838 12.7265393,6.92736301 12.8269286,6.906375 L13.4350714,6.78471429 L13.5073929,7.40732143 C13.5191499,7.50989036 13.5832733,7.59901814 13.6767857,7.64276786 L14.2392857,7.90376786 L13.9366607,8.449875 C13.8866082,8.54038006 13.8866082,8.6502628 13.9366607,8.74076786 Z" id="Shape"></path>
                        <path d="M12.0535714,7.23214286 C11.2548214,7.23214286 10.6071429,7.91566071 10.6071429,8.75892857 C10.6081071,9.60171429 11.2551429,10.28475 12.0535714,10.2857143 C12.8523214,10.2857143 13.5,9.60219643 13.5,8.75892857 C13.5,7.91566071 12.8523214,7.23214286 12.0535714,7.23214286 Z M12.0535714,9.675 C11.5743214,9.675 11.1857143,9.26485714 11.1857143,8.75892857 C11.1857143,8.253 11.5743214,7.84285714 12.0535714,7.84285714 C12.5328214,7.84285714 12.9214286,8.253 12.9214286,8.75892857 C12.9214286,9.26485714 12.5328214,9.675 12.0535714,9.675 Z" id="Shape"></path>
                        <path d="M6.75,1.76785714 L11.5714286,1.76785714 L11.5714286,2.41071429 L6.75,2.41071429 L6.75,1.76785714 Z M3.69642857,3.53571429 L14.4642857,3.53571429 L14.4642857,4.17857143 L3.69642857,4.17857143 L3.69642857,3.53571429 Z M3.69642857,4.82142857 L14.4642857,4.82142857 L14.4642857,5.46428571 L3.69642857,5.46428571 L3.69642857,4.82142857 Z M3.85714286,8.67857143 L7.875,8.67857143 L7.875,9.32142857 L3.85714286,9.32142857 L3.85714286,8.67857143 Z" id="Shape"></path>
                    </g>
                </g>
            </g>
        </g>
    </g>
</svg>