<?xml version="1.0" encoding="UTF-8"?>
<svg width="25px" height="24px" viewBox="0 0 25 24" version="1.1" xmlns="http://www.w3.org/2000/svg" xmlns:xlink="http://www.w3.org/1999/xlink">
    <!-- Generator: Sketch 52.5 (67469) - http://www.bohemiancoding.com/sketch -->
    <title>sketch</title>
    <desc>Created with Sketch.</desc>
    <g id="Page-1" stroke="none" stroke-width="1" fill="none" fill-rule="evenodd">
        <g id="01-Page-Builder" transform="translate(-1370.000000, -361.000000)" fill="#323B52">
            <g id="Table" transform="translate(269.000000, 113.000000)">
                <g id="Actions-draft" transform="translate(1041.000000, 239.000000)">
                    <g id="sketch" transform="translate(60.000000, 9.000000)">
                        <path d="M23.6540881,0.439858516 C23.3533805,0.314661937 23.0068789,0.383647799 22.7769261,0.614583346 L0.805227975,22.5862815 C0.575078642,22.8166274 0.506289308,23.1627358 0.630896201,23.4634434 C0.755503145,23.7643475 1.04893867,23.9604953 1.37441036,23.9604953 L23.3461085,23.9604953 C23.790684,23.9604953 24.1511399,23.6000393 24.1511399,23.1554638 L24.1511399,1.18376574 C24.1511399,0.858097509 23.9549922,0.564465409 23.6540881,0.439858516 Z M22.1385613,23.1554638 L22.1385613,22.3504324 C22.1385613,22.1281447 21.9583333,21.9479167 21.7360456,21.9479167 C21.5137579,21.9479167 21.3335299,22.1281447 21.3335299,22.3504324 L21.3335299,23.1554638 L20.5284984,23.1554638 L20.5284984,22.3504324 C20.5284984,22.1281447 20.3482704,21.9479167 20.1259827,21.9479167 C19.903695,21.9479167 19.723467,22.1281447 19.723467,22.3504324 L19.723467,23.1554638 L18.9184355,23.1554638 L18.9184355,22.3504324 C18.9184355,22.1281447 18.7382075,21.9479167 18.5159198,21.9479167 C18.2936321,21.9479167 18.1134041,22.1281447 18.1134041,22.3504324 L18.1134041,23.1554638 L17.3083726,23.1554638 L17.3083726,22.3504324 C17.3083726,22.1281447 17.1281447,21.9479167 16.9058569,21.9479167 C16.6835692,21.9479167 16.5033412,22.1281447 16.5033412,22.3504324 L16.5033412,23.1554638 L15.6983097,23.1554638 L15.6983097,22.3504324 C15.6983097,22.1281447 15.5180818,21.9479167 15.295794,21.9479167 C15.0735063,21.9479167 14.8932783,22.1281447 14.8932783,22.3504324 L14.8932783,23.1554638 L14.0882468,23.1554638 L14.0882468,22.3504324 C14.0882468,22.1281447 13.9080189,21.9479167 13.6857311,21.9479167 C13.4634434,21.9479167 13.2832154,22.1281447 13.2832154,22.3504324 L13.2832154,23.1554638 L12.4781839,23.1554638 L12.4781839,22.3504324 C12.4781839,22.1281447 12.297956,21.9479167 12.0756682,21.9479167 C11.8533805,21.9479167 11.6731525,22.1281447 11.6731525,22.3504324 L11.6731525,23.1554638 L10.8681211,23.1554638 L10.8681211,22.3504324 C10.8681211,22.1281447 10.6878931,21.9479167 10.4656053,21.9479167 C10.2433176,21.9479167 10.0630896,22.1281447 10.0630896,22.3504324 L10.0630896,23.1554638 L9.25805816,23.1554638 L9.25805816,22.3504324 C9.25805816,22.1281447 9.07783019,21.9479167 8.85554244,21.9479167 C8.63325474,21.9479167 8.45302672,22.1281447 8.45302672,22.3504324 L8.45302672,23.1554638 L7.64799527,23.1554638 L7.64799527,22.3504324 C7.64799527,22.1281447 7.4677673,21.9479167 7.24547955,21.9479167 C7.02319185,21.9479167 6.84296382,22.1281447 6.84296382,22.3504324 L6.84296382,23.1554638 L6.03793238,23.1554638 L6.03793238,22.3504324 C6.03793238,22.1281447 5.8577044,21.9479167 5.63541665,21.9479167 C5.41312896,21.9479167 5.23290093,22.1281447 5.23290093,22.3504324 L5.23290093,23.1554638 L4.42786948,23.1554638 L4.42786948,22.3504324 C4.42786948,22.1281447 4.24764151,21.9479167 4.02535376,21.9479167 C3.80306606,21.9479167 3.62283804,22.1281447 3.62283804,22.3504324 L3.62283804,23.1554638 L1.37441036,23.1554638 L23.3461085,1.18376574 L23.3461085,3.43219341 L22.541077,3.43219341 C22.3187893,3.43219341 22.1385613,3.61242138 22.1385613,3.83470913 C22.1385613,4.05699683 22.3187893,4.23722486 22.541077,4.23722486 L23.3461085,4.23722486 L23.3461085,5.0422563 L22.541077,5.0422563 C22.3187893,5.0422563 22.1385613,5.22248428 22.1385613,5.44477203 C22.1385613,5.66705972 22.3187893,5.84728775 22.541077,5.84728775 L23.3461085,5.84728775 L23.3461085,6.65231919 L22.541077,6.65231919 C22.3187893,6.65231919 22.1385613,6.83254717 22.1385613,7.05483492 C22.1385613,7.27712262 22.3187893,7.45735064 22.541077,7.45735064 L23.3461085,7.45735064 L23.3461085,8.26238209 L22.541077,8.26238209 C22.3187893,8.26238209 22.1385613,8.44261006 22.1385613,8.66489781 C22.1385613,8.88718551 22.3187893,9.06741353 22.541077,9.06741353 L23.3461085,9.06741353 L23.3461085,9.87244498 L22.541077,9.87244498 C22.3187893,9.87244498 22.1385613,10.052673 22.1385613,10.2749607 C22.1385613,10.4972484 22.3187893,10.6774764 22.541077,10.6774764 L23.3461085,10.6774764 L23.3461085,11.4825079 L22.541077,11.4825079 C22.3187893,11.4825079 22.1385613,11.6627358 22.1385613,11.8850236 C22.1385613,12.1073113 22.3187893,12.2875393 22.541077,12.2875393 L23.3461085,12.2875393 L23.3461085,13.0925708 L22.541077,13.0925708 C22.3187893,13.0925708 22.1385613,13.2727987 22.1385613,13.4950865 C22.1385613,13.7173742 22.3187893,13.8976022 22.541077,13.8976022 L23.3461085,13.8976022 L23.3461085,14.7026337 L22.541077,14.7026337 C22.3187893,14.7026337 22.1385613,14.8828616 22.1385613,15.1051494 C22.1385613,15.3274371 22.3187893,15.5076651 22.541077,15.5076651 L23.3461085,15.5076651 L23.3461085,16.3126966 L22.541077,16.3126966 C22.3187893,16.3126966 22.1385613,16.4929245 22.1385613,16.7152123 C22.1385613,16.9375 22.3187893,17.117728 22.541077,17.117728 L23.3461085,17.117728 L23.3461085,17.9227594 L22.541077,17.9227594 C22.3187893,17.9227594 22.1385613,18.1029874 22.1385613,18.3252752 C22.1385613,18.5475629 22.3187893,18.7277909 22.541077,18.7277909 L23.3461085,18.7277909 L23.3461085,19.5328223 L22.541077,19.5328223 C22.3187893,19.5328223 22.1385613,19.7130503 22.1385613,19.9353381 C22.1385613,20.1576258 22.3187893,20.3378538 22.541077,20.3378538 L23.3461085,20.3378538 L23.3461085,21.1428852 L22.541077,21.1428852 C22.3187893,21.1428852 22.1385613,21.3231132 22.1385613,21.545401 C22.1385613,21.7676887 22.3187893,21.9479167 22.541077,21.9479167 L23.3461085,21.9479167 L23.3461085,23.1554638 L22.1385613,23.1554638 Z" id="Shape" fill-rule="nonzero"></path>
                        <path d="M12.1079009,20.3378538 C12.1079009,20.5601415 11.927673,20.7403695 11.7053852,20.7403695 C11.4830975,20.7403695 11.3028695,20.5601415 11.3028695,20.3378538 C11.3028695,20.115566 11.4830975,19.9353381 11.7053852,19.9353381 C11.927673,19.9353381 12.1079009,20.115566 12.1079009,20.3378538 Z" id="Path"></path>
                        <path d="M11.3069968,17.2063679 C11.1487814,17.0532626 10.8976022,17.0532626 10.7393868,17.2063679 L9.60023587,18.3453223 C9.59217766,18.3494497 9.58824684,18.3575079 9.5841195,18.3614387 L7.8936714,20.0520833 C7.77790883,20.1666667 7.74292453,20.3396226 7.80444181,20.4903695 C7.86615567,20.6411164 8.01257862,20.7397799 8.17531447,20.7403695 L10.0953223,20.7403695 C10.3176101,20.7403695 10.497838,20.5601415 10.497838,20.3378538 C10.497838,20.115566 10.3176101,19.9353381 10.0953223,19.9353381 L9.14937107,19.9353381 L11.3069968,17.7737814 C11.4630503,17.6169418 11.4630503,17.3632075 11.3069968,17.2063679 Z" id="Path"></path>
                        <path d="M20.5284984,14.2678852 C20.3062107,14.2678852 20.1259827,14.4481132 20.1259827,14.670401 L20.1259827,18.6955582 C20.1259827,18.9178459 20.3062107,19.0980739 20.5284984,19.0980739 C20.7507862,19.0980739 20.9310141,18.9178459 20.9310141,18.6955582 L20.9310141,14.670401 C20.9310141,14.4481132 20.7507862,14.2678852 20.5284984,14.2678852 Z" id="Path"></path>
                        <path d="M20.1582154,20.3378538 C20.1582154,20.5601415 19.9779874,20.7403695 19.7556997,20.7403695 C19.5334119,20.7403695 19.3531839,20.5601415 19.3531839,20.3378538 C19.3531839,20.115566 19.5334119,19.9353381 19.7556997,19.9353381 C19.9779874,19.9353381 20.1582154,20.115566 20.1582154,20.3378538 Z" id="Path"></path>
                        <path d="M20.6816038,7.61438682 C20.5308569,7.55306606 20.3579009,7.58785379 20.242728,7.70283019 L19.2767296,8.66902516 C19.1206761,8.82586475 19.1206761,9.07940252 19.2767296,9.23643869 C19.4365173,9.38934747 19.6884827,9.38934747 19.8482704,9.23643869 L20.1259827,8.95872644 L20.1259827,10.6452437 C20.1259827,10.8675315 20.3062107,11.0477594 20.5284984,11.0477594 C20.7507862,11.0477594 20.9310141,10.8675315 20.9310141,10.6452437 L20.9310141,7.98466979 C20.930228,7.82213052 20.831761,7.67610063 20.6816038,7.61438682 Z" id="Path"></path>
                        <path d="M20.9310141,13.0603381 C20.9310141,13.2826258 20.7507862,13.4628538 20.5284984,13.4628538 C20.3062107,13.4628538 20.1259827,13.2826258 20.1259827,13.0603381 C20.1259827,12.8380503 20.3062107,12.6578223 20.5284984,12.6578223 C20.7507862,12.6578223 20.9310141,12.8380503 20.9310141,13.0603381 Z" id="Path"></path>
                        <path d="M14.1527123,14.928066 L16.9984277,12.0823506 C17.1544811,11.9253145 17.1544811,11.6717767 16.9984277,11.5147406 C16.8402123,11.3616352 16.5892296,11.3616352 16.4310141,11.5147406 L13.5851022,14.3604559 C13.4703223,14.458923 13.4202044,14.6134041 13.4555818,14.7604167 C13.4909591,14.9074292 13.605739,15.0222091 13.7527516,15.0575865 C13.8999607,15.0929638 14.0542453,15.0428459 14.1527123,14.928066 Z" id="Path"></path>
                        <path d="M18.1456368,19.9353381 L14.1204795,19.9353381 C13.8981918,19.9353381 13.7179638,20.115566 13.7179638,20.3378538 C13.7179638,20.5601415 13.8981918,20.7403695 14.1204795,20.7403695 L18.1456368,20.7403695 C18.3679245,20.7403695 18.5481525,20.5601415 18.5481525,20.3378538 C18.5481525,20.115566 18.3679245,19.9353381 18.1456368,19.9353381 Z" id="Path"></path>
                        <path d="M4.23683175,13.4198113 C4.24803462,13.4158805 4.25845127,13.4121462 4.26926098,13.4074292 C4.31171381,13.3885613 4.3504324,13.3628145 4.38404086,13.3307783 L4.38718551,13.3284198 L14.0644654,3.65113992 C14.3787343,3.33687104 14.3787343,2.82724055 14.0644654,2.51277514 L11.7875393,0.235849057 C11.4730739,-0.0784198239 10.9636399,-0.0784198239 10.6491745,0.235849057 L0.971894642,9.91273585 L0.969536151,9.9158805 C0.937696553,9.94948901 0.911753157,9.98820755 0.893081761,10.0306604 C0.888168252,10.0414701 0.884630491,10.0518868 0.880503145,10.0632861 C0.874213836,10.0774371 0.868710692,10.0919811 0.863993711,10.1067217 L0.0104166541,13.8069968 C-0.0172955975,13.9266903 0.0112028176,14.0522798 0.0876572579,14.1481918 C0.163915069,14.2443003 0.280070742,14.3001179 0.402712252,14.3001179 C0.433176101,14.3001179 0.46363995,14.2967768 0.493317635,14.2900943 L4.1931997,13.4363208 C4.20813681,13.4316038 4.22248428,13.4261006 4.23683175,13.4198113 Z M11.2183569,0.805031447 L13.4954795,3.08195753 L12.3575079,4.22032231 L10.0799922,1.94280659 L11.2183569,0.805031447 Z M9.51041665,2.51277514 L10.3653695,3.36733489 L7.80503145,5.92786948 C7.72818395,6.00314465 7.68474843,6.10593555 7.68435532,6.21363995 C7.68573112,6.43533806 7.86517293,6.61458335 8.08687104,6.61615567 C8.19359275,6.61536951 8.29579401,6.57350631 8.37264151,6.49941036 L10.9329796,3.93533806 L11.7875393,4.78989781 L4.10279089,12.4746462 L3.24823114,11.6200865 L5.52672956,9.34512579 C5.6018082,9.26906445 5.64386792,9.16627361 5.64347482,9.05935537 C5.64465409,8.95224055 5.60259431,8.84925313 5.52672956,8.77358491 C5.36694184,8.62067613 5.1149764,8.62067613 4.95518868,8.77358491 L2.68022797,11.0518868 L1.82566823,10.1977202 L9.51041665,2.51277514 Z M0.939661937,13.3606525 L1.485456,10.9958727 L3.30444181,12.8148585 L0.939661937,13.3606525 Z" id="Shape" fill-rule="nonzero"></path>
                        <path d="M6.84296382,7.85986636 C6.84296382,8.08215406 6.66273585,8.26238209 6.4404481,8.26238209 C6.2181604,8.26238209 6.03793238,8.08215406 6.03793238,7.85986636 C6.03793238,7.63757862 6.2181604,7.45735064 6.4404481,7.45735064 C6.66273585,7.45735064 6.84296382,7.63757862 6.84296382,7.85986636 Z" id="Path"></path>
                        <path d="M18.5159198,10.2749607 C18.5159198,10.4972484 18.3356918,10.6774764 18.1134041,10.6774764 C17.8911164,10.6774764 17.7108884,10.4972484 17.7108884,10.2749607 C17.7108884,10.052673 17.8911164,9.87244498 18.1134041,9.87244498 C18.3356918,9.87244498 18.5159198,10.052673 18.5159198,10.2749607 Z" id="Path"></path>
                        <path d="M12.8806997,15.9101808 C12.8806997,16.1324685 12.7004717,16.3126966 12.4781839,16.3126966 C12.2558963,16.3126966 12.0756682,16.1324685 12.0756682,15.9101808 C12.0756682,15.6878931 12.2558963,15.5076651 12.4781839,15.5076651 C12.7004717,15.5076651 12.8806997,15.6878931 12.8806997,15.9101808 Z" id="Path"></path>
                    </g>
                </g>
            </g>
        </g>
    </g>
</svg>