<?xml version="1.0" encoding="UTF-8"?>
<svg width="24px" height="24px" viewBox="0 0 24 24" version="1.1" xmlns="http://www.w3.org/2000/svg" xmlns:xlink="http://www.w3.org/1999/xlink">
    <!-- Generator: Sketch 52.5 (67469) - http://www.bohemiancoding.com/sketch -->
    <title>copy</title>
    <desc>Created with Sketch.</desc>
    <g id="Page-1" stroke="none" stroke-width="1" fill="none" fill-rule="evenodd">
        <g id="01-Page-Builder" transform="translate(-1448.000000, -238.000000)" fill="#323B52">
            <g id="Table" transform="translate(269.000000, 113.000000)">
                <g id="row-1" transform="translate(0.000000, 107.000000)">
                    <g id="Actions-published" transform="translate(1041.000000, 9.000000)">
                        <g id="copy" transform="translate(138.000000, 9.000000)">
                            <path d="M21.9162162,0 L6.2027027,0 C5.06140541,0 4.13513514,0.92627027 4.13513514,2.06756757 L4.13513514,4.13513514 L2.06756757,4.13513514 C0.92627027,4.13513514 0,5.06140541 0,6.2027027 L0,21.9162162 C0,23.0575135 0.92627027,23.9837838 2.06756757,23.9837838 L17.7810811,23.9837838 C18.9223784,23.9837838 19.8486486,23.0575135 19.8486486,21.9162162 L19.8486486,19.8486486 L21.9162162,19.8486486 C23.0575135,19.8486486 23.9837838,18.9223784 23.9837838,17.7810811 L23.9837838,2.06756757 C23.9837838,0.92627027 23.0575135,0 21.9162162,0 Z M19.0216216,21.9162162 C19.0216216,22.6026486 18.4675135,23.1567568 17.7810811,23.1567568 L2.06756757,23.1567568 C1.38113514,23.1567568 0.827027027,22.6026486 0.827027027,21.9162162 L0.827027027,6.2027027 C0.827027027,5.51627027 1.38113514,4.96216216 2.06756757,4.96216216 L17.7810811,4.96216216 C18.4675135,4.96216216 19.0216216,5.51627027 19.0216216,6.2027027 L19.0216216,21.9162162 Z M23.1567568,17.7810811 C23.1567568,18.4675135 22.6026486,19.0216216 21.9162162,19.0216216 L19.8486486,19.0216216 L19.8486486,6.2027027 C19.8486486,5.06140541 18.9223784,4.13513514 17.7810811,4.13513514 L4.96216216,4.13513514 L4.96216216,2.06756757 C4.96216216,1.38113514 5.51627027,0.827027027 6.2027027,0.827027027 L21.9162162,0.827027027 C22.6026486,0.827027027 23.1567568,1.38113514 23.1567568,2.06756757 L23.1567568,17.7810811 Z" id="Shape" fill-rule="nonzero"></path>
                            <path d="M7.85675676,5.99594595 L2.06756757,5.99594595 C1.95178378,5.99594595 1.86081081,6.08691892 1.86081081,6.2027027 L1.86081081,11.9918919 C1.86081081,12.1076757 1.95178378,12.1986486 2.06756757,12.1986486 C2.18335135,12.1986486 2.27432432,12.1076757 2.27432432,11.9918919 L2.27432432,6.40945946 L7.85675676,6.40945946 C7.97254054,6.40945946 8.06351351,6.31848649 8.06351351,6.2027027 C8.06351351,6.08691892 7.97254054,5.99594595 7.85675676,5.99594595 Z" id="Path"></path>
                            <path d="M17.7810811,15.9202703 C17.6652973,15.9202703 17.5743243,16.0112432 17.5743243,16.127027 L17.5743243,21.7094595 L11.9918919,21.7094595 C11.8761081,21.7094595 11.7851351,21.8004324 11.7851351,21.9162162 C11.7851351,22.032 11.8761081,22.122973 11.9918919,22.122973 L17.7810811,22.122973 C17.8968649,22.122973 17.9878378,22.032 17.9878378,21.9162162 L17.9878378,16.127027 C17.9878378,16.0112432 17.8968649,15.9202703 17.7810811,15.9202703 Z" id="Path"></path>
                        </g>
                    </g>
                </g>
            </g>
        </g>
    </g>
</svg>