<?xml version="1.0" encoding="UTF-8"?>
<svg width="23px" height="24px" viewBox="0 0 23 24" version="1.1" xmlns="http://www.w3.org/2000/svg" xmlns:xlink="http://www.w3.org/1999/xlink">
    <!-- Generator: Sketch 52.5 (67469) - http://www.bohemiancoding.com/sketch -->
    <title>publish</title>
    <desc>Created with Sketch.</desc>
    <g id="Page-1" stroke="none" stroke-width="1" fill="none" fill-rule="evenodd">
        <g id="01-Page-Builder" transform="translate(-1372.000000, -237.000000)" fill="#323B52" fill-rule="nonzero">
            <g id="Table" transform="translate(269.000000, 113.000000)">
                <g id="row-1" transform="translate(0.000000, 107.000000)">
                    <g id="Actions-published" transform="translate(1041.000000, 9.000000)">
                        <g id="publish" transform="translate(62.000000, 8.000000)">
                            <path d="M22.9492881,5.89383051 L17.0875932,0 L17.0875932,3.51945763 C15.511322,3.5320678 14.3617627,3.88922034 13.6067797,4.23986441 L0.00284745763,4.23986441 L0.00284745763,23.7652881 L19.5282712,23.7652881 L19.5282712,9.33355932 L22.9492881,5.89383051 Z M17.1791186,4.33261017 C17.2779661,4.33261017 17.3792542,4.33423729 17.4817627,4.33749153 L17.9007458,4.34969492 L17.9007458,1.9720678 L21.8017627,5.89423729 L19.5278644,8.1799322 L19.1422373,8.56759322 L17.9007458,9.816 L17.9007458,7.53722034 L17.9007458,7.53681356 L17.5895593,7.46155932 C17.5411525,7.44976271 16.3924068,7.18088136 14.8584407,7.55918644 C14.3902373,7.67511864 13.8536949,7.86305085 13.2878644,8.16040678 C12.7525424,8.44149153 12.1907797,8.82142373 11.6338983,9.33559322 C11.2653559,9.67566102 10.8984407,10.0730847 10.5437288,10.5400678 C10.5905085,9.50888136 10.8894915,7.94766102 12.0736271,6.50481356 C12.3465763,6.1720678 12.6667119,5.84583051 13.0417627,5.53383051 C13.0421695,5.53342373 13.0584407,5.51918644 13.0856949,5.49722034 C13.0897627,5.4939661 13.0934237,5.49071186 13.0983051,5.48705085 C13.1092881,5.47850847 13.1239322,5.46711864 13.1381695,5.45654237 C13.1491525,5.448 13.1601356,5.43986441 13.1731525,5.43050847 C13.1857627,5.42115254 13.2012203,5.41016949 13.2158644,5.4 C13.2370169,5.38494915 13.2589831,5.36949153 13.2837966,5.35281356 C13.2951864,5.34508475 13.3077966,5.33694915 13.3204068,5.32840678 C13.3553898,5.30522034 13.3936271,5.28122034 13.4355254,5.25559322 C13.4412203,5.2519322 13.447322,5.24867797 13.4530169,5.24501695 C14.0408136,4.88989831 15.2668475,4.33261017 17.1791186,4.33261017 Z M18.7147119,10.1515932 L18.7147119,22.9521356 L0.81640678,22.9521356 L0.81640678,5.05383051 L12.3518644,5.05383051 C12.3237966,5.07823729 12.2985763,5.10305085 12.271322,5.12745763 C12.2229153,5.17098305 12.175322,5.21410169 12.1289492,5.2580339 C12.0781017,5.30562712 12.0284746,5.35362712 11.979661,5.40162712 C11.9349153,5.44555932 11.8909831,5.48989831 11.8482712,5.53423729 C11.8010847,5.58305085 11.7551186,5.63186441 11.7099661,5.68067797 C11.6692881,5.72501695 11.6290169,5.76935593 11.5895593,5.81369492 C11.5460339,5.86332203 11.5037288,5.91294915 11.4618305,5.96298305 C11.4244068,6.00772881 11.3873898,6.05247458 11.3515932,6.09722034 C11.3117288,6.14725424 11.2730847,6.19769492 11.2348475,6.24772881 C11.200678,6.29288136 11.1669153,6.33762712 11.1343729,6.38318644 C11.0977627,6.43362712 11.0627797,6.4840678 11.0282034,6.53450847 C10.9972881,6.57966102 10.9663729,6.62522034 10.936678,6.67037288 C10.903322,6.72122034 10.8715932,6.7720678 10.8398644,6.82291525 C10.8122034,6.86766102 10.7845424,6.91240678 10.7576949,6.95755932 C10.7271864,7.00922034 10.6983051,7.06047458 10.6694237,7.11213559 C10.6446102,7.15647458 10.6202034,7.20081356 10.5966102,7.24515254 C10.5689492,7.29681356 10.5429153,7.34847458 10.5168814,7.40013559 C10.4949153,7.44366102 10.4729492,7.48759322 10.4522034,7.53111864 C10.4273898,7.58318644 10.4037966,7.63525424 10.3806102,7.68691525 C10.3614915,7.7300339 10.3419661,7.77274576 10.323661,7.81586441 C10.3016949,7.86752542 10.2809492,7.91918644 10.2602034,7.97044068 C10.2431186,8.01274576 10.2260339,8.05545763 10.2101695,8.09776271 C10.1906441,8.14942373 10.172339,8.20067797 10.1544407,8.2519322 C10.1397966,8.29301695 10.1251525,8.33410169 10.1117288,8.37518644 C10.0946441,8.42684746 10.0787797,8.47769492 10.0629153,8.52894915 C10.0503051,8.56922034 10.0376949,8.60949153 10.0263051,8.64935593 C10.011661,8.70020339 9.99783051,8.75023729 9.98440678,8.80027119 C9.97383051,8.83932203 9.96325424,8.87837288 9.95349153,8.91742373 C9.94088136,8.96827119 9.92908475,9.01789831 9.91769492,9.0679322 C9.90915254,9.10494915 9.90020339,9.1419661 9.89247458,9.17857627 C9.88149153,9.22901695 9.87213559,9.27823729 9.86237288,9.32786441 C9.85545763,9.36325424 9.84813559,9.39864407 9.8420339,9.43362712 C9.83308475,9.48325424 9.82535593,9.5320678 9.81722034,9.58088136 C9.8119322,9.61423729 9.80623729,9.64759322 9.80135593,9.68054237 C9.7940339,9.72935593 9.7879322,9.77694915 9.78183051,9.82454237 C9.77776271,9.85627119 9.77328814,9.888 9.76962712,9.91932203 C9.7639322,9.96691525 9.75945763,10.0132881 9.75498305,10.059661 C9.75213559,10.0889492 9.74888136,10.1186441 9.74644068,10.1475254 C9.74237288,10.1938983 9.73952542,10.2386441 9.73627119,10.2837966 C9.73423729,10.3114576 9.73220339,10.3391186 9.73057627,10.3659661 C9.72813559,10.4107119 9.72610169,10.4538305 9.72447458,10.4973559 C9.72366102,10.5225763 9.7220339,10.5482034 9.72122034,10.5730169 C9.72,10.6165424 9.71918644,10.6584407 9.71877966,10.700339 C9.71837288,10.7227119 9.7179661,10.7454915 9.71755932,10.7674576 C9.71715254,10.8097627 9.71755932,10.8504407 9.7179661,10.8907119 C9.7179661,10.9102373 9.7179661,10.9305763 9.71837288,10.9492881 C9.71918644,10.988339 9.72040678,11.0253559 9.72162712,11.0623729 C9.7220339,11.080678 9.72244068,11.1002034 9.72325424,11.1181017 C9.72488136,11.1547119 9.72691525,11.1892881 9.72854237,11.2234576 C9.72935593,11.239322 9.73016949,11.256 9.73098305,11.2710508 C9.73301695,11.3056271 9.73545763,11.3373559 9.73830508,11.3690847 C9.73911864,11.3821017 9.74033898,11.396339 9.74115254,11.4085424 C9.744,11.4410847 9.74684746,11.4711864 9.74969492,11.5004746 C9.75050847,11.5098305 9.75132203,11.5204068 9.75254237,11.5297627 C9.75579661,11.5594576 9.75864407,11.5863051 9.76189831,11.612339 C9.76271186,11.6192542 9.76352542,11.6273898 9.76433898,11.6338983 C9.768,11.6627797 9.77125424,11.6884068 9.77450847,11.712 C9.77491525,11.7144407 9.77532203,11.7172881 9.77532203,11.7197288 C9.78223729,11.767322 9.7879322,11.8027119 9.79240678,11.8271186 C9.79281356,11.8291525 9.79322034,11.8324068 9.79362712,11.8344407 C9.79566102,11.8466441 9.79728814,11.8551864 9.79850847,11.8600678 L10.0018983,12.9067119 L10.5473898,11.9906441 C12.3555254,8.95322034 14.660339,8.27389831 16.083661,8.17749153 C16.5087458,8.14901695 16.8561356,8.17179661 17.0871864,8.19986441 L17.0871864,11.7864407 L17.0871864,11.7868475 L18.7147119,10.1515932 Z" id="Shape"></path>
                        </g>
                    </g>
                </g>
            </g>
        </g>
    </g>
</svg>