<?xml version="1.0" encoding="UTF-8"?>
<svg width="24px" height="24px" viewBox="0 0 24 24" version="1.1" xmlns="http://www.w3.org/2000/svg" xmlns:xlink="http://www.w3.org/1999/xlink">
    <!-- Generator: Sketch 52.5 (67469) - http://www.bohemiancoding.com/sketch -->
    <title>settings</title>
    <desc>Created with Sketch.</desc>
    <g id="Page-1" stroke="none" stroke-width="1" fill="none" fill-rule="evenodd">
        <g id="01-Page-Builder" transform="translate(-1498.000000, -238.000000)" fill="#323B52">
            <g id="Table" transform="translate(269.000000, 113.000000)">
                <g id="row-1" transform="translate(0.000000, 107.000000)">
                    <g id="Actions-published" transform="translate(1041.000000, 9.000000)">
                        <g id="settings" transform="translate(188.000000, 9.000000)">
                            <path d="M22.7644444,9.33333333 L20.5191111,9.33333333 C20.1582222,9.33333333 19.8608889,9.13466667 19.7226667,8.80133333 C19.5844444,8.468 19.6546667,8.11688889 19.9093333,7.86177778 L21.4968889,6.27466667 C21.7302222,6.04133333 21.8586667,5.73066667 21.8586667,5.40088889 C21.8586667,5.07066667 21.7302222,4.76044444 21.4968889,4.52666667 L19.4733333,2.50311111 C19.0066667,2.03644444 18.1928889,2.03555556 17.7253333,2.50311111 L16.1382222,4.09022222 C15.8831111,4.34488889 15.5311111,4.416 15.1986667,4.27733333 C14.8653333,4.13911111 14.6666667,3.84177778 14.6666667,3.48088889 L14.6666667,1.23555556 C14.6666667,0.554222222 14.1124444,0 13.4311111,0 L10.5688889,0 C9.88755556,0 9.33333333,0.554222222 9.33333333,1.23555556 L9.33333333,3.48088889 C9.33333333,3.84177778 9.13466667,4.13911111 8.80133333,4.27733333 C8.46888889,4.41644444 8.11688889,4.34488889 7.86177778,4.09022222 L6.27466667,2.50311111 C5.80711111,2.03555556 4.99333333,2.03644444 4.52666667,2.50311111 L2.50311111,4.52666667 C2.26977778,4.76 2.14133333,5.07066667 2.14133333,5.40088889 C2.14133333,5.73066667 2.26977778,6.04088889 2.50311111,6.27466667 L4.09066667,7.86177778 C4.34533333,8.11688889 4.41511111,8.468 4.27733333,8.80133333 C4.13955556,9.13466667 3.84177778,9.33333333 3.48088889,9.33333333 L1.23555556,9.33333333 C0.554222222,9.33333333 0,9.88755556 0,10.5688889 L0,13.4306667 C0,14.1124444 0.554222222,14.6666667 1.23555556,14.6666667 L3.48088889,14.6666667 C3.84177778,14.6666667 4.13911111,14.8653333 4.27733333,15.1986667 C4.41555556,15.532 4.34533333,15.8831111 4.09066667,16.1382222 L2.50311111,17.7253333 C2.26977778,17.9586667 2.14133333,18.2693333 2.14133333,18.5991111 C2.14133333,18.9293333 2.26977778,19.2395556 2.50311111,19.4733333 L4.52666667,21.4968889 C4.99377778,21.964 5.80711111,21.9648889 6.27466667,21.4968889 L7.86177778,19.9093333 C8.11688889,19.6546667 8.46755556,19.5844444 8.80133333,19.7226667 C9.13466667,19.8608889 9.33333333,20.1582222 9.33333333,20.5191111 L9.33333333,22.7644444 C9.33333333,23.4457778 9.88755556,24 10.5688889,24 L13.4306667,24 C14.112,24 14.6662222,23.4457778 14.6662222,22.7644444 L14.6662222,20.5191111 C14.6662222,20.1582222 14.8648889,19.8608889 15.1982222,19.7226667 C15.532,19.584 15.8826667,19.6546667 16.1377778,19.9093333 L17.7248889,21.4968889 C18.1924444,21.9644444 19.0062222,21.9635556 19.4728889,21.4968889 L21.4964444,19.4733333 C21.7297778,19.24 21.8582222,18.9293333 21.8582222,18.5991111 C21.8582222,18.2693333 21.7297778,17.9591111 21.4964444,17.7253333 L19.9088889,16.1382222 C19.6542222,15.8831111 19.5844444,15.532 19.7222222,15.1986667 C19.86,14.8653333 20.1582222,14.6666667 20.5191111,14.6666667 L22.7644444,14.6666667 C23.4457778,14.6666667 24,14.1124444 24,13.4311111 L24,10.5688889 C24,9.88755556 23.4457778,9.33333333 22.7644444,9.33333333 Z M23.1111111,13.4311111 C23.1111111,13.6222222 22.9555556,13.7777778 22.7644444,13.7777778 L20.5191111,13.7777778 C19.7973333,13.7777778 19.1773333,14.192 18.9013333,14.8586667 C18.6248889,15.5253333 18.7702222,16.2568889 19.2808889,16.7671111 L20.8684444,18.3542222 C21.004,18.4897778 21.004,18.7097778 20.8684444,18.8448889 L18.8448889,20.8684444 C18.7097778,21.0035556 18.4897778,21.0044444 18.3542222,20.8684444 L16.7671111,19.2808889 C16.2564444,18.7702222 15.5253333,18.6257778 14.8586667,18.9013333 C14.192,19.1773333 13.7777778,19.7973333 13.7777778,20.5191111 L13.7777778,22.7644444 C13.7777778,22.9555556 13.6222222,23.1111111 13.4311111,23.1111111 L10.5688889,23.1111111 C10.3777778,23.1111111 10.2222222,22.9555556 10.2222222,22.7644444 L10.2222222,20.5191111 C10.2222222,19.7973333 9.808,19.1773333 9.14133333,18.9013333 C8.91777778,18.8084444 8.68755556,18.7631111 8.46,18.7631111 C8.00933333,18.7631111 7.57244444,18.9408889 7.23288889,19.2804444 L5.64577778,20.868 C5.50977778,21.004 5.28977778,21.0031111 5.15511111,20.868 L3.13155556,18.8444444 C2.996,18.7088889 2.996,18.4888889 3.13155556,18.3537778 L4.71911111,16.7666667 C5.22933333,16.2564444 5.37511111,15.5248889 5.09866667,14.8582222 C4.82266667,14.192 4.20266667,13.7777778 3.48088889,13.7777778 L1.23555556,13.7777778 C1.04444444,13.7777778 0.888888889,13.6222222 0.888888889,13.4311111 L0.888888889,10.5688889 C0.888888889,10.3777778 1.04444444,10.2222222 1.23555556,10.2222222 L3.48088889,10.2222222 C4.20266667,10.2222222 4.82266667,9.808 5.09866667,9.14133333 C5.37511111,8.47466667 5.22977778,7.74311111 4.71911111,7.23288889 L3.13155556,5.64577778 C2.996,5.51022222 2.996,5.29022222 3.13155556,5.15511111 L5.15511111,3.13155556 C5.29022222,2.996 5.51022222,2.996 5.64577778,3.13155556 L7.23288889,4.71866667 C7.74266667,5.22844444 8.47377778,5.37466667 9.14133333,5.09822222 C9.808,4.82266667 10.2222222,4.20266667 10.2222222,3.48088889 L10.2222222,1.23555556 C10.2222222,1.04444444 10.3777778,0.888888889 10.5688889,0.888888889 L13.4306667,0.888888889 C13.6222222,0.888888889 13.7777778,1.04444444 13.7777778,1.23555556 L13.7777778,3.48088889 C13.7777778,4.20266667 14.192,4.82266667 14.8586667,5.09866667 C15.5262222,5.37511111 16.2568889,5.22933333 16.7671111,4.71911111 L18.3542222,3.132 C18.4902222,2.99644444 18.7102222,2.99644444 18.8448889,3.132 L20.8684444,5.15555556 C21.004,5.29111111 21.004,5.51111111 20.8684444,5.64622222 L19.2808889,7.23333333 C18.7706667,7.74355556 18.6248889,8.47511111 18.9013333,9.14177778 C19.1773333,9.80844444 19.7973333,10.2226667 20.5191111,10.2226667 L22.7644444,10.2226667 C22.9555556,10.2222222 23.1111111,10.3777778 23.1111111,10.5688889 L23.1111111,13.4311111 Z" id="Shape"></path>
                            <path d="M12,8 C9.79422222,8 8,9.79422222 8,12 C8,14.2057778 9.79422222,16 12,16 C14.2057778,16 16,14.2057778 16,12 C16,9.79422222 14.2057778,8 12,8 Z M12,15.1111111 C10.2848889,15.1111111 8.88888889,13.7151111 8.88888889,12 C8.88888889,10.2848889 10.2848889,8.88888889 12,8.88888889 C13.7151111,8.88888889 15.1111111,10.2848889 15.1111111,12 C15.1111111,13.7151111 13.7151111,15.1111111 12,15.1111111 Z" id="Shape"></path>
                        </g>
                    </g>
                </g>
            </g>
        </g>
    </g>
</svg>